<svg xmlns="http://www.w3.org/2000/svg" width="90" height="90" viewBox="0 0 500 500" version="1.1"><path d="M 91.334 136.250 C 90.903 136.938, 90.405 138.563, 90.226 139.863 C 89.910 142.166, 89.964 142.153, 92.359 139.369 C 94.694 136.655, 94.937 135, 93 135 C 92.515 135, 91.765 135.563, 91.334 136.250 M 88.310 160.500 C 88.315 163.800, 88.502 165.029, 88.725 163.232 C 88.947 161.435, 88.943 158.735, 88.715 157.232 C 88.486 155.729, 88.304 157.200, 88.310 160.500 M 264.348 201.481 C 245.884 205.997, 235.044 221.598, 235.012 243.701 C 234.993 257.018, 238.129 266.457, 245.269 274.568 C 253.335 283.731, 262.859 287.473, 276.345 286.776 C 287.089 286.222, 294.595 283.277, 300.216 277.413 C 305.475 271.926, 309.949 263.602, 309.978 259.250 L 310 256 301.106 256 L 292.212 256 289.856 260.698 C 286.752 266.887, 283.356 269.223, 276.654 269.779 C 262.518 270.951, 254 261.258, 254 244 C 254 234.857, 256.280 227.841, 260.788 223.106 C 269.819 213.622, 284.995 215.952, 290.153 227.614 L 292.069 231.945 299.785 231.823 C 304.028 231.756, 308.063 231.496, 308.750 231.244 C 311.912 230.086, 307.864 218.331, 302.005 211.658 C 293.690 202.188, 278.378 198.050, 264.348 201.481 M 343.225 201.509 C 332.549 204.114, 326.765 208.653, 323.062 217.333 C 319.256 226.253, 321.313 235.556, 328.483 241.851 C 333.004 245.821, 334.319 246.368, 349.179 250.461 C 355.603 252.230, 362.008 254.431, 363.413 255.351 C 367.954 258.327, 368.096 265.581, 363.669 268.481 C 360.737 270.403, 353.199 271.447, 348.554 270.576 C 343.905 269.704, 338 264.568, 338 261.396 C 338 259.370, 337.498 258.992, 334.750 258.946 C 332.962 258.917, 328.800 258.831, 325.500 258.757 L 319.500 258.621 319.588 262.560 C 319.752 269.988, 324.631 277.618, 332.224 282.324 C 342 288.382, 362.392 288.503, 373.866 282.570 C 384.508 277.066, 389.208 261.895, 383.647 251 C 379.545 242.965, 372.875 239.424, 351.500 233.935 C 348.750 233.229, 345.469 231.991, 344.209 231.184 C 335.240 225.439, 342.417 215.041, 354.492 216.287 C 361.103 216.969, 363.652 218.504, 366.124 223.290 L 368.081 227.080 376.291 226.790 L 384.500 226.500 384.184 222.500 C 383.349 211.911, 375.356 204.292, 362.185 201.533 C 353.676 199.750, 350.447 199.746, 343.225 201.509 M 130.816 204.750 C 130.642 206.262, 130.623 225.180, 130.773 246.789 L 131.045 286.077 139.773 285.789 L 148.500 285.500 149 259.617 L 149.500 233.734 159.694 259.117 L 169.888 284.500 176.585 284.500 C 181.526 284.500, 183.485 284.107, 184.058 283 C 185.516 280.180, 187.847 274.503, 190.012 268.500 C 191.202 265.200, 192.844 261.012, 193.662 259.193 C 194.479 257.375, 196.286 252.875, 197.677 249.193 C 205.299 229.025, 204.935 228.521, 204.970 259.289 L 205 286.078 213.750 285.789 L 222.500 285.500 222.761 243.750 L 223.022 202 210.980 202 C 200.397 202, 198.867 202.212, 198.360 203.750 C 198.043 204.713, 196.932 207.408, 195.892 209.739 C 194.851 212.071, 194 214.213, 194 214.500 C 194 214.787, 193.147 216.929, 192.104 219.261 C 191.061 221.592, 187.664 230.025, 184.555 238 C 176.461 258.762, 176.986 257.955, 174.941 252.779 C 169.813 239.802, 155.662 205.247, 154.863 203.750 C 154.058 202.240, 152.364 202, 142.531 202 L 131.133 202 130.816 204.750" stroke="none" fill="#0d1620" fill-rule="evenodd"/><path d="M 57 80.955 C 47.210 82.450, 40.306 87.943, 37.792 96.237 C 36.764 99.629, 36.500 127.565, 36.500 233 L 36.500 365.500 39.291 370.798 C 42.244 376.403, 50.088 382.564, 52.897 381.486 C 53.691 381.181, 54.698 381.510, 55.135 382.216 C 55.771 383.242, 70.078 383.500, 126.215 383.500 C 202.187 383.500, 199.200 383.298, 204.708 388.801 C 208.283 392.373, 210.636 397.830, 212.053 405.839 C 213.689 415.079, 215.560 417.525, 222.058 418.919 C 227.705 420.130, 268 420.420, 268 419.250 C 268 418.837, 271.103 418.500, 274.895 418.500 C 280.245 418.500, 282.257 418.078, 283.871 416.616 C 285.016 415.580, 285.712 414.343, 285.417 413.866 C 285.123 413.390, 285.411 413, 286.058 413 C 286.741 413, 287.014 412.162, 286.710 410.999 C 286.422 409.898, 286.534 409.212, 286.958 409.474 C 287.383 409.737, 288.024 407.454, 288.383 404.402 C 288.956 399.522, 290.230 396.339, 294.624 388.801 C 295.242 387.741, 296.031 386.907, 296.378 386.948 C 296.726 386.989, 298.695 386.261, 300.755 385.331 C 304.117 383.811, 311.706 383.579, 375 383.056 C 443.614 382.489, 445.620 382.418, 450 380.397 C 455.602 377.812, 461.529 371.359, 462.928 366.321 C 463.651 363.717, 463.991 320.848, 463.994 231.770 C 464 112.641, 463.854 100.662, 462.349 96.770 C 459.888 90.403, 456.795 86.751, 451.362 83.794 L 446.484 81.139 374.492 80.571 C 295.205 79.945, 279.192 80.489, 271.583 84.066 C 265.519 86.917, 256.991 95.572, 253.315 102.608 C 251.767 105.571, 250.275 107.978, 250 107.957 C 249.725 107.935, 248.400 105.578, 247.056 102.717 C 241.706 91.335, 229.182 82.876, 214.945 81.028 C 206.547 79.938, 64.088 79.872, 57 80.955 M 316 133.970 C 316 134.395, 313.776 135.037, 311.058 135.398 C 308.340 135.758, 304.586 136.693, 302.716 137.474 C 300.845 138.256, 298.232 138.655, 296.908 138.361 C 295.157 137.972, 294.877 138.093, 295.882 138.804 C 296.997 139.592, 296.869 139.907, 295.222 140.430 C 291.845 141.502, 289.964 145.612, 288.420 155.302 C 286.805 165.428, 284.907 168.967, 280.432 170.200 C 276.574 171.263, 222.199 171.026, 219.328 169.935 C 215.872 168.621, 214.145 165.080, 213.003 156.967 C 211.581 146.867, 208.662 141.359, 203 138.094 L 198.500 135.500 147.904 135.500 C 104.416 135.500, 97.048 135.711, 95.462 137 C 94.447 137.825, 93.935 137.969, 94.324 137.319 C 95.312 135.673, 93.083 134.517, 91.663 135.939 C 90.492 137.111, 90.361 138.288, 90.128 149.809 C 90.058 153.279, 89.616 155.881, 89.147 155.591 C 88.678 155.301, 88.452 166.862, 88.644 181.282 C 88.837 195.702, 89.196 226.400, 89.443 249.500 C 89.689 272.600, 90.073 292.175, 90.295 293 C 90.516 293.825, 91.018 295.233, 91.409 296.129 C 91.801 297.025, 92.206 304.152, 92.311 311.968 C 92.488 325.292, 92.637 326.289, 94.704 327.962 C 96.751 329.619, 101.271 329.778, 158.204 330.203 L 219.500 330.660 227.169 333.890 C 236.208 337.696, 242.166 343.423, 246.955 352.911 L 250.067 359.075 253.731 351.953 C 257.770 344.101, 264.327 337.465, 271.220 334.255 C 279.494 330.401, 286.444 330, 344.931 330 C 406.603 330, 405.750 330.078, 409.294 324.080 C 410.867 321.416, 411 314.305, 411 232.546 C 411 156.782, 410.788 143.490, 409.540 141.077 C 408.737 139.524, 408.287 137.972, 408.540 137.627 C 408.793 137.282, 408.704 137.221, 408.342 137.491 C 407.980 137.762, 407.012 137.424, 406.190 136.741 C 405.086 135.824, 394.878 135.356, 367.098 134.950 C 346.419 134.647, 326.462 134.129, 322.750 133.799 C 319.038 133.469, 316 133.546, 316 133.970 M 130.455 246.500 C 130.455 267.950, 130.587 276.583, 130.749 265.684 C 130.911 254.785, 130.910 237.235, 130.748 226.684 C 130.587 216.133, 130.454 225.050, 130.455 246.500 M 204.437 259 C 204.437 273.575, 204.577 279.538, 204.747 272.250 C 204.918 264.962, 204.918 253.037, 204.747 245.750 C 204.577 238.463, 204.437 244.425, 204.437 259 M 323.750 258.706 C 324.988 258.944, 327.012 258.944, 328.250 258.706 C 329.488 258.467, 328.475 258.272, 326 258.272 C 323.525 258.272, 322.512 258.467, 323.750 258.706 M 332.250 258.689 C 333.212 258.941, 334.788 258.941, 335.750 258.689 C 336.712 258.438, 335.925 258.232, 334 258.232 C 332.075 258.232, 331.288 258.438, 332.250 258.689" stroke="none" fill="#9a1c1d" fill-rule="evenodd"/></svg>